<?xml version="1.0" standalone="no"?>
<!DOCTYPE svg PUBLIC "-//W3C//DTD SVG 20010904//EN"
 "http://www.w3.org/TR/2001/REC-SVG-20010904/DTD/svg10.dtd">
<svg version="1.0" xmlns="http://www.w3.org/2000/svg"
 width="150.000000pt" height="41.000000pt" viewBox="0 0 150.000000 41.000000"
 preserveAspectRatio="xMidYMid meet">
<metadata>
Created by potrace 1.15, written by Peter Selinger 2001-2017
</metadata>
<g transform="translate(0.000000,41.000000) scale(0.100000,-0.100000)"
fill="#000000" stroke="none">
<path d="M130 391 c-63 -20 -120 -48 -120 -59 0 -6 506 -6 1220 1 l265 2 -70
35 -70 35 -585 2 c-539 2 -589 1 -640 -16z"/>
<path d="M207 302 l-197 -2 0 -48 c0 -26 4 -53 8 -59 6 -10 85 -13 317 -15
l310 -3 -52 -18 c-29 -10 -53 -22 -53 -27 0 -5 32 4 70 20 39 16 70 27 70 25
0 -2 -31 -23 -70 -46 -38 -23 -70 -43 -70 -46 0 -18 34 -62 52 -67 31 -8 286
-6 318 3 15 4 32 21 41 40 l16 33 -66 35 c-95 49 -100 61 -8 19 42 -19 77 -31
77 -27 0 14 -23 29 -70 43 -40 12 -13 13 267 16 l313 2 5 23 c5 27 8 55 6 82
-1 20 -8 20 -544 20 -298 0 -631 -1 -740 -3z"/>
</g>
</svg>
